<svg width="40" height="41" viewBox="0 0 40 41" fill="none" xmlns="http://www.w3.org/2000/svg">
<path d="M20 0.5C8.95536 0.5 0 9.45536 0 20.5C0 31.5446 8.95536 40.5 20 40.5C31.0446 40.5 40 31.5446 40 20.5C40 9.45536 31.0446 0.5 20 0.5ZM21.6295 25.4464C19.6696 28.2054 15.7321 29.0089 12.6607 27.8259C9.58036 26.6518 7.39286 23.3973 7.65625 20.0804C7.72321 16.0223 11.4598 12.4643 15.5179 12.6027C17.4643 12.5134 19.2946 13.3571 20.7857 14.5491C20.1473 15.2723 19.4911 15.9688 18.7857 16.6161C16.9955 15.3795 14.4464 15.0268 12.6563 16.4554C10.0938 18.2277 9.97768 22.4107 12.442 24.317C14.8393 26.4911 19.3705 25.4107 20.0357 22.0804C18.5357 22.058 17.0268 22.0804 15.5268 22.0313C15.5223 21.1339 15.5179 20.2411 15.5223 19.3438C18.0313 19.3348 20.5446 19.3304 23.058 19.3527C23.2054 21.4643 22.9241 23.7054 21.6295 25.4464ZM32.4554 21.5938C31.7054 21.6027 30.9554 21.6071 30.2054 21.6116C30.1964 22.3616 30.192 23.1116 30.192 23.8616H27.9464C27.9375 23.1116 27.9375 22.3661 27.933 21.6161C27.183 21.6071 26.433 21.6027 25.683 21.5938V19.3571C26.433 19.3482 27.183 19.3438 27.933 19.3438C27.9375 18.5938 27.9464 17.8438 27.9509 17.0938H30.192L30.2054 19.3438C30.9554 19.3527 31.7054 19.3527 32.4554 19.3571V21.5938Z" fill="#EA4335"/>
</svg>
