<svg width="36" height="36" viewBox="0 0 36 36" fill="none" xmlns="http://www.w3.org/2000/svg">
<path d="M18 18.96C17.4643 18.9621 16.9441 19.1401 16.5194 19.4666C16.0946 19.7931 15.7889 20.2501 15.6492 20.7673C15.5094 21.2844 15.5434 21.8332 15.7459 22.3292C15.9485 22.8252 16.3083 23.2409 16.77 23.5125V27H19.26V23.5125C19.6254 23.2964 19.9286 22.9894 20.1402 22.6214C20.3518 22.2535 20.4645 21.837 20.4675 21.4125C20.4675 21.0892 20.4036 20.769 20.2794 20.4705C20.1552 20.172 19.9732 19.9009 19.7439 19.673C19.5146 19.4451 19.2425 19.2647 18.9432 19.1424C18.6439 19.02 18.3234 18.958 18 18.96Z" stroke="black" stroke-opacity="0.5" stroke-width="1.65" stroke-linecap="round" stroke-linejoin="round"/>
<path d="M27.2175 13.3275H8.77503C6.98563 13.3275 5.53503 14.7781 5.53503 16.5675V29.385C5.53503 31.1744 6.98563 32.625 8.77503 32.625H27.2175C29.0069 32.625 30.4575 31.1744 30.4575 29.385V16.5675C30.4575 14.7781 29.0069 13.3275 27.2175 13.3275Z" stroke="black" stroke-opacity="0.5" stroke-width="1.65" stroke-linecap="round" stroke-linejoin="round"/>
<path d="M10.0125 13.3275V11.37C10.0125 9.24959 10.8548 7.21603 12.3542 5.71668C13.8535 4.21733 15.8871 3.375 18.0075 3.375C20.1279 3.375 22.1615 4.21733 23.6608 5.71668C25.1602 7.21603 26.0025 9.24959 26.0025 11.37V13.3275" stroke="black" stroke-opacity="0.5" stroke-width="1.65" stroke-linecap="round" stroke-linejoin="round"/>
</svg>
