<svg width="36" height="36" viewBox="0 0 36 36" fill="none" xmlns="http://www.w3.org/2000/svg">
<path fill-rule="evenodd" clip-rule="evenodd" d="M11.1068 26.0355C16.2406 25.2855 19.7753 25.35 24.9158 26.0618C25.2881 26.1157 25.6283 26.3026 25.8735 26.5878C26.1188 26.873 26.2525 27.2373 26.2501 27.6135C26.2501 27.9735 26.1263 28.323 25.9028 28.596C25.5133 29.072 25.1142 29.5401 24.7058 30H26.6866C26.8111 29.8515 26.9363 29.7 27.0631 29.5463C27.508 29.0007 27.7507 28.3182 27.7501 27.6143C27.7501 26.0955 26.6416 24.7868 25.1213 24.5768C19.8593 23.8485 16.1813 23.7788 10.8901 24.552C9.35409 24.7763 8.25009 26.1053 8.25009 27.6345C8.25009 28.3133 8.47134 28.9845 8.89059 29.5282C9.01434 29.6887 9.13659 29.8462 9.25809 30.0007H11.1908C10.8109 29.5459 10.4403 29.0833 10.0793 28.6133C9.86481 28.3319 9.74908 27.9876 9.75009 27.6338C9.75009 26.826 10.3306 26.1488 11.1068 26.0355ZM18.0001 18.75C18.591 18.75 19.1762 18.6336 19.7222 18.4075C20.2681 18.1813 20.7642 17.8498 21.1821 17.432C21.5999 17.0141 21.9314 16.518 22.1575 15.9721C22.3837 15.4261 22.5001 14.8409 22.5001 14.25C22.5001 13.6591 22.3837 13.0739 22.1575 12.5279C21.9314 11.982 21.5999 11.4859 21.1821 11.068C20.7642 10.6502 20.2681 10.3187 19.7222 10.0925C19.1762 9.8664 18.591 9.75 18.0001 9.75C16.8066 9.75 15.662 10.2241 14.8181 11.068C13.9742 11.9119 13.5001 13.0565 13.5001 14.25C13.5001 15.4435 13.9742 16.5881 14.8181 17.432C15.662 18.2759 16.8066 18.75 18.0001 18.75V18.75ZM18.0001 20.25C19.5914 20.25 21.1175 19.6179 22.2427 18.4926C23.368 17.3674 24.0001 15.8413 24.0001 14.25C24.0001 12.6587 23.368 11.1326 22.2427 10.0074C21.1175 8.88214 19.5914 8.25 18.0001 8.25C16.4088 8.25 14.8827 8.88214 13.7575 10.0074C12.6322 11.1326 12.0001 12.6587 12.0001 14.25C12.0001 15.8413 12.6322 17.3674 13.7575 18.4926C14.8827 19.6179 16.4088 20.25 18.0001 20.25V20.25Z" fill="black" fill-opacity="0.5"/>
<path fill-rule="evenodd" clip-rule="evenodd" d="M18 31.5C25.4558 31.5 31.5 25.4557 31.5 18C31.5 10.5442 25.4558 4.5 18 4.5C10.5443 4.5 4.50003 10.5442 4.50003 18C4.50003 25.4557 10.5443 31.5 18 31.5ZM18 33C26.2845 33 33 26.2845 33 18C33 9.7155 26.2845 3 18 3C9.71553 3 3.00003 9.7155 3.00003 18C3.00003 26.2845 9.71553 33 18 33Z" fill="black" fill-opacity="0.5"/>
</svg>
